<svg width="80" height="88" viewBox="0 0 80 88" fill="none" xmlns="http://www.w3.org/2000/svg">
<g filter="url(#filter0_b_9_939)">
<path d="M0 47.8954C0 25.8618 17.9664 8 40 8C62.0336 8 80 25.8618 80 47.8954C80 69.929 62.0336 87.7908 40 87.7908C17.9664 87.7908 0 69.929 0 47.8954Z" fill="url(#paint0_radial_9_939)"/>
<path d="M0.5 47.8954C0.5 26.1396 18.2408 8.5 40 8.5C61.7592 8.5 79.5 26.1396 79.5 47.8954C79.5 69.6512 61.7592 87.2908 40 87.2908C18.2408 87.2908 0.5 69.6512 0.5 47.8954Z" stroke="url(#paint1_radial_9_939)"/>
<path d="M0.5 47.8954C0.5 26.1396 18.2408 8.5 40 8.5C61.7592 8.5 79.5 26.1396 79.5 47.8954C79.5 69.6512 61.7592 87.2908 40 87.2908C18.2408 87.2908 0.5 69.6512 0.5 47.8954Z" stroke="url(#paint2_radial_9_939)"/>
<path d="M0.5 47.8954C0.5 26.1396 18.2408 8.5 40 8.5C61.7592 8.5 79.5 26.1396 79.5 47.8954C79.5 69.6512 61.7592 87.2908 40 87.2908C18.2408 87.2908 0.5 69.6512 0.5 47.8954Z" stroke="url(#paint3_radial_9_939)"/>
</g>
<g filter="url(#filter1_f_9_939)">
<ellipse cx="39.7435" cy="29.4826" rx="25.3846" ry="16.3673" fill="url(#paint4_radial_9_939)" fill-opacity="0.2"/>
</g>
<path d="M35.0225 35.5558C34.3624 35.5558 33.7294 35.8181 33.2626 36.2848C32.7958 36.7516 32.5336 37.3846 32.5336 38.0447C32.5336 38.7048 32.7958 39.3379 33.2626 39.8046C33.7294 40.2714 34.3624 40.5336 35.0225 40.5336H48.9254L45.7073 43.7518C45.2539 44.2212 45.0031 44.8499 45.0087 45.5024C45.0144 46.155 45.2762 46.7793 45.7376 47.2407C46.1991 47.7022 46.8233 47.9639 47.4759 47.9696C48.1285 47.9753 48.7572 47.7244 49.2266 47.271L56.6933 39.8044C57.1599 39.3376 57.422 38.7047 57.422 38.0447C57.422 37.3848 57.1599 36.7518 56.6933 36.2851L49.2266 28.8184C48.997 28.5807 48.7224 28.3911 48.4187 28.2607C48.1151 28.1302 47.7885 28.0616 47.458 28.0587C47.1275 28.0558 46.7998 28.1188 46.4939 28.2439C46.188 28.3691 45.9102 28.5539 45.6765 28.7876C45.4428 29.0213 45.258 29.2991 45.1328 29.605C45.0077 29.9109 44.9447 30.2386 44.9476 30.5691C44.9505 30.8996 45.0191 31.2262 45.1495 31.5298C45.28 31.8335 45.4696 32.1081 45.7073 32.3377L48.9254 35.5558H35.0225Z" fill="url(#paint5_linear_9_939)"/>
<path d="M44.9781 60.4447C45.6382 60.4447 46.2712 60.1825 46.738 59.7158C47.2048 59.249 47.467 58.6159 47.467 57.9558C47.467 57.2957 47.2048 56.6627 46.738 56.1959C46.2712 55.7292 45.6382 55.467 44.9781 55.467H31.0751L34.2933 52.2488C34.531 52.0192 34.7206 51.7446 34.851 51.4409C34.9815 51.1373 35.0501 50.8107 35.053 50.4802C35.0559 50.1497 34.9929 49.822 34.8678 49.5161C34.7426 49.2103 34.5578 48.9324 34.3241 48.6987C34.0904 48.465 33.8126 48.2802 33.5067 48.155C33.2008 48.0299 32.8731 47.9669 32.5426 47.9698C32.2121 47.9727 31.8855 48.0413 31.5819 48.1718C31.2782 48.3022 31.0036 48.4918 30.774 48.7295L23.3073 56.1962C22.8407 56.6629 22.5786 57.2959 22.5786 57.9558C22.5786 58.6158 22.8407 59.2487 23.3073 59.7155L30.774 67.1822C31.2434 67.6355 31.8721 67.8864 32.5247 67.8807C33.1773 67.875 33.8015 67.6133 34.263 67.1518C34.7244 66.6904 34.9862 66.0661 34.9918 65.4135C34.9975 64.761 34.7467 64.1323 34.2933 63.6629L31.0751 60.4447H44.9781Z" fill="url(#paint6_linear_9_939)"/>
<defs>
<filter id="filter0_b_9_939" x="-5" y="3" width="90" height="89.791" filterUnits="userSpaceOnUse" color-interpolation-filters="sRGB">
<feFlood flood-opacity="0" result="BackgroundImageFix"/>
<feGaussianBlur in="BackgroundImage" stdDeviation="2.5"/>
<feComposite in2="SourceAlpha" operator="in" result="effect1_backgroundBlur_9_939"/>
<feBlend mode="normal" in="SourceGraphic" in2="effect1_backgroundBlur_9_939" result="shape"/>
</filter>
<filter id="filter1_f_9_939" x="1.40435" y="0.1607" width="76.6781" height="58.6434" filterUnits="userSpaceOnUse" color-interpolation-filters="sRGB">
<feFlood flood-opacity="0" result="BackgroundImageFix"/>
<feBlend mode="normal" in="SourceGraphic" in2="BackgroundImageFix" result="shape"/>
<feGaussianBlur stdDeviation="6.47727" result="effect1_foregroundBlur_9_939"/>
</filter>
<radialGradient id="paint0_radial_9_939" cx="0" cy="0" r="1" gradientUnits="userSpaceOnUse" gradientTransform="translate(6.69204 8) rotate(47.9449) scale(119.431 86.7751)">
<stop stop-color="white" stop-opacity="0.36"/>
<stop offset="1" stop-color="white" stop-opacity="0"/>
</radialGradient>
<radialGradient id="paint1_radial_9_939" cx="0" cy="0" r="1" gradientUnits="userSpaceOnUse" gradientTransform="translate(-42.5965 16.1628) rotate(35.0407) scale(92.1512 54.3882)">
<stop stop-color="white"/>
<stop offset="1" stop-color="white" stop-opacity="0.06"/>
</radialGradient>
<radialGradient id="paint2_radial_9_939" cx="0" cy="0" r="1" gradientUnits="userSpaceOnUse" gradientTransform="translate(103.421 61.4008) rotate(161.385) scale(66.8428 45.1784)">
<stop stop-color="#8470FF"/>
<stop offset="1" stop-color="#865CFF" stop-opacity="0"/>
</radialGradient>
<radialGradient id="paint3_radial_9_939" cx="0" cy="0" r="1" gradientUnits="userSpaceOnUse" gradientTransform="translate(40.871 -10.2359) rotate(47.2149) scale(44.643 32.0879)">
<stop/>
<stop offset="1" stop-color="white" stop-opacity="0"/>
</radialGradient>
<radialGradient id="paint4_radial_9_939" cx="0" cy="0" r="1" gradientUnits="userSpaceOnUse" gradientTransform="translate(39.7435 13.1152) rotate(90) scale(24.2566 37.625)">
<stop stop-color="white"/>
<stop offset="1" stop-color="white" stop-opacity="0"/>
</radialGradient>
<linearGradient id="paint5_linear_9_939" x1="28.9303" y1="87.3771" x2="80.7254" y2="52.0875" gradientUnits="userSpaceOnUse">
<stop stop-color="#982DEC"/>
<stop offset="0.572917" stop-color="#DC8DF8"/>
<stop offset="0.895833" stop-color="#A9C4F3"/>
</linearGradient>
<linearGradient id="paint6_linear_9_939" x1="28.9303" y1="87.3771" x2="80.7254" y2="52.0875" gradientUnits="userSpaceOnUse">
<stop stop-color="#982DEC"/>
<stop offset="0.572917" stop-color="#DC8DF8"/>
<stop offset="0.895833" stop-color="#A9C4F3"/>
</linearGradient>
</defs>
</svg>
