<svg width="80" height="88" viewBox="0 0 80 88" fill="none" xmlns="http://www.w3.org/2000/svg">
<g filter="url(#filter0_b_9_956)">
<path d="M0 47.8954C0 25.8618 17.9664 8 40 8C62.0336 8 80 25.8618 80 47.8954C80 69.929 62.0336 87.7908 40 87.7908C17.9664 87.7908 0 69.929 0 47.8954Z" fill="url(#paint0_radial_9_956)"/>
<path d="M0.5 47.8954C0.5 26.1396 18.2408 8.5 40 8.5C61.7592 8.5 79.5 26.1396 79.5 47.8954C79.5 69.6512 61.7592 87.2908 40 87.2908C18.2408 87.2908 0.5 69.6512 0.5 47.8954Z" stroke="url(#paint1_radial_9_956)"/>
<path d="M0.5 47.8954C0.5 26.1396 18.2408 8.5 40 8.5C61.7592 8.5 79.5 26.1396 79.5 47.8954C79.5 69.6512 61.7592 87.2908 40 87.2908C18.2408 87.2908 0.5 69.6512 0.5 47.8954Z" stroke="url(#paint2_radial_9_956)"/>
<path d="M0.5 47.8954C0.5 26.1396 18.2408 8.5 40 8.5C61.7592 8.5 79.5 26.1396 79.5 47.8954C79.5 69.6512 61.7592 87.2908 40 87.2908C18.2408 87.2908 0.5 69.6512 0.5 47.8954Z" stroke="url(#paint3_radial_9_956)"/>
</g>
<g filter="url(#filter1_f_9_956)">
<ellipse cx="39.7435" cy="29.4826" rx="25.3846" ry="16.3673" fill="url(#paint4_radial_9_956)" fill-opacity="0.2"/>
</g>
<path fill-rule="evenodd" clip-rule="evenodd" d="M46.2222 31.4072C48.931 31.4072 51.2374 33.1391 52.0919 35.5554H33.7778C31.0274 35.5554 28.3897 36.648 26.4448 38.5928C24.5 40.5376 23.4074 43.1754 23.4074 45.9257V55.9435C22.1939 55.5142 21.1434 54.7192 20.4005 53.668C19.6576 52.6168 19.2589 51.3611 19.2593 50.0739V37.6294C19.2593 35.9792 19.9148 34.3966 21.0817 33.2297C22.2486 32.0628 23.8313 31.4072 25.4815 31.4072H46.2222ZM54.5185 39.7035H33.7778C32.1276 39.7035 30.5449 40.3591 29.378 41.526C28.2111 42.6929 27.5556 44.2755 27.5556 45.9257V58.3702C27.5556 60.0204 28.2111 61.6031 29.378 62.77C30.5449 63.9369 32.1276 64.5924 33.7778 64.5924H54.5185C56.1688 64.5924 57.7514 63.9369 58.9183 62.77C60.0852 61.6031 60.7408 60.0204 60.7408 58.3702V45.9257C60.7408 44.2755 60.0852 42.6929 58.9183 41.526C57.7514 40.3591 56.1688 39.7035 54.5185 39.7035ZM48.2963 52.148C48.2963 53.2481 47.8593 54.3032 47.0813 55.0812C46.3034 55.8591 45.2483 56.2961 44.1482 56.2961C43.048 56.2961 41.9929 55.8591 41.215 55.0812C40.4371 54.3032 40 53.2481 40 52.148C40 51.0478 40.4371 49.9927 41.215 49.2148C41.9929 48.4369 43.048 47.9998 44.1482 47.9998C45.2483 47.9998 46.3034 48.4369 47.0813 49.2148C47.8593 49.9927 48.2963 51.0478 48.2963 52.148Z" fill="url(#paint5_linear_9_956)"/>
<defs>
<filter id="filter0_b_9_956" x="-5" y="3" width="90" height="89.791" filterUnits="userSpaceOnUse" color-interpolation-filters="sRGB">
<feFlood flood-opacity="0" result="BackgroundImageFix"/>
<feGaussianBlur in="BackgroundImage" stdDeviation="2.5"/>
<feComposite in2="SourceAlpha" operator="in" result="effect1_backgroundBlur_9_956"/>
<feBlend mode="normal" in="SourceGraphic" in2="effect1_backgroundBlur_9_956" result="shape"/>
</filter>
<filter id="filter1_f_9_956" x="1.40435" y="0.1607" width="76.6781" height="58.6434" filterUnits="userSpaceOnUse" color-interpolation-filters="sRGB">
<feFlood flood-opacity="0" result="BackgroundImageFix"/>
<feBlend mode="normal" in="SourceGraphic" in2="BackgroundImageFix" result="shape"/>
<feGaussianBlur stdDeviation="6.47727" result="effect1_foregroundBlur_9_956"/>
</filter>
<radialGradient id="paint0_radial_9_956" cx="0" cy="0" r="1" gradientUnits="userSpaceOnUse" gradientTransform="translate(6.69204 8) rotate(47.9449) scale(119.431 86.7751)">
<stop stop-color="white" stop-opacity="0.36"/>
<stop offset="1" stop-color="white" stop-opacity="0"/>
</radialGradient>
<radialGradient id="paint1_radial_9_956" cx="0" cy="0" r="1" gradientUnits="userSpaceOnUse" gradientTransform="translate(-42.5965 16.1628) rotate(35.0407) scale(92.1512 54.3882)">
<stop stop-color="white"/>
<stop offset="1" stop-color="white" stop-opacity="0.06"/>
</radialGradient>
<radialGradient id="paint2_radial_9_956" cx="0" cy="0" r="1" gradientUnits="userSpaceOnUse" gradientTransform="translate(103.421 61.4008) rotate(161.385) scale(66.8428 45.1784)">
<stop stop-color="#8470FF"/>
<stop offset="1" stop-color="#865CFF" stop-opacity="0"/>
</radialGradient>
<radialGradient id="paint3_radial_9_956" cx="0" cy="0" r="1" gradientUnits="userSpaceOnUse" gradientTransform="translate(40.871 -10.2359) rotate(47.2149) scale(44.643 32.0879)">
<stop/>
<stop offset="1" stop-color="white" stop-opacity="0"/>
</radialGradient>
<radialGradient id="paint4_radial_9_956" cx="0" cy="0" r="1" gradientUnits="userSpaceOnUse" gradientTransform="translate(39.7435 13.1152) rotate(90) scale(24.2566 37.625)">
<stop stop-color="white"/>
<stop offset="1" stop-color="white" stop-opacity="0"/>
</radialGradient>
<linearGradient id="paint5_linear_9_956" x1="26.821" y1="80.8393" x2="73.1833" y2="35.7121" gradientUnits="userSpaceOnUse">
<stop stop-color="#982DEC"/>
<stop offset="0.572917" stop-color="#DC8DF8"/>
<stop offset="0.895833" stop-color="#A9C4F3"/>
</linearGradient>
</defs>
</svg>
